<svg aria-hidden="true" style="position: absolute; width: 0; height: 0; overflow: hidden;" version="1.1" xmlns="http://www.w3.org/2000/svg" xmlns:xlink="http://www.w3.org/1999/xlink">
<defs>
<symbol id="icon-close-x" viewBox="0 0 32 32">
<path  stroke="#121417" stroke-linejoin="round" stroke-linecap="round" stroke-miterlimit="4" stroke-width="2.4" d="M24 8l-16 16"></path>
<path  stroke="#121417" stroke-linejoin="round" stroke-linecap="round" stroke-miterlimit="4" stroke-width="2.4" d="M8 8l16 16"></path>
</symbol>
<symbol id="icon-chevron-down" viewBox="0 0 32 32">
<path fill="none" stroke="#121417" style="stroke: var(--color1, #121417)" stroke-linejoin="round" stroke-linecap="round" stroke-miterlimit="4" stroke-width="3.2" d="M8 12l8 8 8-8"></path>
</symbol>
<symbol id="icon-active-heart" viewBox="0 0 32 32">
<path fill="#3470ff" style="fill: var(--color2, #3470ff); stroke: var(--color2, #3470ff)" stroke="#3470ff" stroke-linejoin="round" stroke-linecap="round" stroke-miterlimit="4" stroke-width="1.7778" d="M27.787 6.147c-0.681-0.681-1.49-1.222-2.38-1.591s-1.844-0.559-2.807-0.559c-0.963 0-1.917 0.19-2.807 0.559s-1.698 0.909-2.38 1.591l-1.413 1.413-1.413-1.413c-1.376-1.376-3.241-2.148-5.187-2.148s-3.811 0.773-5.187 2.148c-1.376 1.376-2.148 3.241-2.148 5.187s0.773 3.811 2.148 5.187l11.787 11.787 11.787-11.787c0.681-0.681 1.222-1.49 1.591-2.38s0.559-1.844 0.559-2.807c0-0.963-0.19-1.917-0.559-2.807s-0.909-1.699-1.591-2.38z"></path>
</symbol>
<symbol id="icon-normal-heart" viewBox="0 0 32 32">
<path fill="none" stroke="#fff" style="stroke: var(--color1, #fff)" stroke-linejoin="round" stroke-linecap="round" stroke-miterlimit="4" stroke-width="2.6667" d="M27.787 6.147c-0.681-0.681-1.49-1.222-2.38-1.591s-1.844-0.559-2.807-0.559c-0.963 0-1.917 0.19-2.807 0.559s-1.698 0.909-2.38 1.591l-1.413 1.413-1.413-1.413c-1.376-1.376-3.241-2.148-5.187-2.148s-3.811 0.773-5.187 2.148c-1.376 1.376-2.148 3.241-2.148 5.187s0.773 3.811 2.148 5.187l11.787 11.787 11.787-11.787c0.681-0.681 1.222-1.49 1.591-2.38s0.559-1.844 0.559-2.807c0-0.963-0.19-1.917-0.559-2.807s-0.909-1.699-1.591-2.38z"></path>
</symbol>
<symbol id="icon-car_rental_black_24dp" viewBox="0 0 32 32">
<path d="M21.853 12h-11.707c-0.573 0-1.080 0.373-1.267 0.907l-2.213 6.667v9.080c0 0.387 0.307 0.68 0.667 0.68h1.333c0.373 0 0.667-0.293 0.667-0.667v-2h13.333v2c0 0.373 0.293 0.667 0.667 0.667h1.333c0.373 0 0.667-0.293 0.667-0.667v-9.080l-2.213-6.667c-0.187-0.547-0.693-0.92-1.267-0.92zM10.373 24c-0.907 0-1.627-0.72-1.627-1.627s0.72-1.627 1.627-1.627 1.627 0.733 1.627 1.627-0.72 1.627-1.627 1.627zM21.627 24c-0.893 0-1.627-0.72-1.627-1.627s0.72-1.627 1.627-1.627 1.627 0.72 1.627 1.627-0.72 1.627-1.627 1.627zM8.387 18.667l1.773-5.333h11.707l1.773 5.333h-15.253z"></path>
<path d="M14.44 4c-0.56-1.56-2.040-2.667-3.773-2.667-2.213 0-4 1.787-4 4 0 2.2 1.787 4 4 4 1.733 0 3.213-1.12 3.773-2.667h6.893v2.667h2.667v-2.667h1.333v-2.667h-10.893zM10.667 6.667c-0.733 0-1.333-0.6-1.333-1.333s0.6-1.333 1.333-1.333 1.333 0.6 1.333 1.333-0.6 1.333-1.333 1.333z"></path>
</symbol>
</defs>
</svg>
